<svg width="30" height="30" viewBox="0 0 30 30" fill="none" xmlns="http://www.w3.org/2000/svg">
<path d="M29.5538 6.17125C28.51 6.63375 27.3888 6.94625 26.21 7.0875C27.4125 6.3675 28.335 5.225 28.77 3.865C27.645 4.5325 26.3988 5.0175 25.0725 5.2775C24.01 4.1475 22.4975 3.44 20.8225 3.44C17.6075 3.44 15 6.0475 15 9.265C15 9.72 15.0525 10.1625 15.15 10.59C10.3088 10.3463 6.02001 8.0275 3.14751 4.505C2.64751 5.3675 2.36001 6.3675 2.36001 7.4325C2.36001 9.4525 3.38876 11.2363 4.95001 12.28C3.99501 12.2488 3.09751 11.9875 2.31251 11.5513V11.6263C2.31251 14.4475 4.31876 16.8013 6.98376 17.3363C6.49376 17.4688 5.98001 17.5388 5.45001 17.5388C5.07501 17.5388 4.70876 17.5038 4.35376 17.4363C5.09501 19.7488 7.24502 21.4338 9.79377 21.4788C7.80001 23.0413 5.28876 23.9725 2.56126 23.9725C2.09126 23.9725 1.62751 23.945 1.17126 23.8913C3.74876 25.545 6.80876 26.5075 10.0963 26.5075C20.8088 26.5075 26.665 17.635 26.665 9.94C26.665 9.69 26.6588 9.4375 26.6475 9.1875C27.785 8.365 28.7725 7.34125 29.5513 6.175L29.5538 6.17125Z" fill="white"/>
</svg>
